<?xml version="1.0" encoding="UTF-8" standalone="no"?>
<svg width="145px" height="132px" viewBox="0 0 145 132" version="1.1" xmlns="http://www.w3.org/2000/svg" xmlns:xlink="http://www.w3.org/1999/xlink">
    <!-- Generator: Sketch 3.7.1 (28215) - http://www.bohemiancoding.com/sketch -->
    <title>Slice 1</title>
    <desc>Created with Sketch.</desc>
    <defs></defs>
    <g id="Page-1" stroke="none" stroke-width="1" fill="none" fill-rule="evenodd">
        <path d="M144.148,67.052 C144.148,102.867 115.115,131.902 79.299,131.902 C43.483,131.902 14.449,102.867 14.449,67.052 C14.449,31.236 43.483,2.202 79.299,2.202 C115.115,2.202 144.148,31.236 144.148,67.052" id="Fill-43" fill="#75C2DC"></path>
        <path d="M142.228,82.767 L107.399,47.262 L47.018,101.732 L77.147,131.863 C77.862,131.886 78.579,131.902 79.299,131.902 C109.696,131.902 135.203,110.988 142.228,82.767" id="Fill-44" fill="#6FACC1"></path>
        <path d="M88.08,96.234 C88.08,96.234 79.222,103.311 86.908,111.983 C75.478,110.406 66.019,103.901 79.419,96.019 C92.82,88.136 88.08,96.234 88.08,96.234" id="Fill-45" fill="#121721"></path>
        <polyline id="Fill-46" fill="#090C0C" points="126.367 20.585 118.292 26.099 104.185 26.099 113.722 11.859 126.367 20.585"></polyline>
        <path d="M70.073,35.769 C70.073,35.769 74.007,0.041 104.185,3.421 C124.106,5.651 120.396,27.205 117.03,32.507 L94.165,47.475 L70.073,35.769" id="Fill-47" fill="#1E2431"></path>
        <path d="M0.894,108.704 L0.894,108.704 C5.265,113.076 12.354,113.076 16.726,108.704 L83.087,42.345 L75.171,34.429 L0.894,108.704" id="Fill-48" fill="#1E2431"></path>
        <path d="M30.125,108.704 L30.125,108.704 C34.497,113.076 41.585,113.076 45.957,108.704 L112.319,42.345 L104.403,34.429 L30.125,108.704" id="Fill-49" fill="#121721"></path>
        <path d="M117.03,32.507 C117.03,32.507 90.991,23.658 79.465,36.466 C76.233,40.057 73.965,42.754 72.34,44.81 C71.875,45.741 80.873,62.63 80.873,62.63 C80.873,62.63 47.021,83.851 39.124,88.119 C46.594,112.879 86.508,115.44 109.988,93.883 C133.467,72.324 117.03,32.507 117.03,32.507" id="Fill-50" fill="#DD4149"></path>
        <path d="M43.934,65.665 C43.934,65.665 58.297,60.474 68.366,66.134 C90.059,78.331 100.282,33.533 70.073,35.769 C65.164,36.893 51.191,51.95 43.934,65.665" id="Fill-51" fill="#F8EAD8"></path>
        <path d="M68.366,66.134 C65.853,64.825 63.102,64.136 60.382,63.832 L15.509,108.704 C19.881,113.076 26.97,113.076 31.341,108.704 L72.274,67.772 C71.021,67.43 69.716,66.894 68.366,66.134" id="Fill-52" fill="#1E2431"></path>
        <path d="M112.36,16.866 C112.36,20.642 109.3,23.699 105.528,23.699 C101.755,23.699 98.695,20.642 98.695,16.866 C98.695,13.092 101.755,10.036 105.528,10.036 C109.3,10.036 112.36,13.092 112.36,16.866" id="Fill-53" fill="#FFFFFF"></path>
        <path d="M109.71,16.866 C109.71,19.178 107.837,21.05 105.528,21.05 C103.218,21.05 101.345,19.178 101.345,16.866 C101.345,14.556 103.218,12.685 105.528,12.685 C107.837,12.685 109.71,14.556 109.71,16.866" id="Fill-54" fill="#090C0C"></path>
        <path d="M105.528,14.791 C105.528,15.939 104.599,16.866 103.453,16.866 C102.308,16.866 101.378,15.939 101.378,14.791 C101.378,13.646 102.308,12.718 103.453,12.718 C104.599,12.718 105.528,13.646 105.528,14.791" id="Fill-55" fill="#FFFFFF"></path>
        <polyline id="Fill-56" fill="#1E2431" points="106.906 3.881 87.085 0.384 91.114 4.669 99.951 8.191 106.906 3.881"></polyline>
    </g>
</svg>