<?xml version="1.0" encoding="UTF-8" standalone="no"?>
<svg width="146px" height="151px" viewBox="0 0 146 151" version="1.1" xmlns="http://www.w3.org/2000/svg" xmlns:xlink="http://www.w3.org/1999/xlink">
    <!-- Generator: Sketch 3.7.1 (28215) - http://www.bohemiancoding.com/sketch -->
    <title>Slice 1</title>
    <desc>Created with Sketch.</desc>
    <defs></defs>
    <g id="Page-1" stroke="none" stroke-width="1" fill="none" fill-rule="evenodd">
        <path d="M137.138,22.246 C137.138,22.246 137.138,22.245 137.139,22.244 C135.762,17.803 133.361,14.414 133.361,14.414 C125.54,6.235 114.198,15.538 120.294,24.578 C122.514,24.452 126.843,27.709 128.032,28.602 C128.032,28.602 130.006,19.789 137.138,22.246" id="Fill-15" fill="#F8EAD8"></path>
        <path d="M145.565,85.847 C145.565,121.663 116.529,150.697 80.714,150.697 C44.898,150.697 15.863,121.663 15.863,85.847 C15.863,50.031 44.898,20.997 80.714,20.997 C116.529,20.997 145.565,50.031 145.565,85.847" id="Fill-16" fill="#F9C563"></path>
        <path d="M83.379,150.638 C114.089,149.396 139.298,126.804 144.556,97.3 L127.79,80.208 L29.333,96.546 L83.379,150.638" id="Fill-17" fill="#CFA756"></path>
        <path d="M117.161,52.309 C104.419,40.589 100.946,34.22 101.944,24.261 C102.315,20.574 104.771,15.477 106.151,18.244 C110.581,27.131 120.294,24.578 120.294,24.578 C120.294,24.578 118.145,15.629 131.442,15.375 C136.835,15.273 132.535,6.422 120.136,1.766 C102.113,-5.001 93.738,10.256 91.98,17.455 C88.373,32.238 92.776,46.104 110.746,62.631 C116.439,67.867 119.231,72.603 118.409,75.626 C117.052,80.605 106.628,85.027 100.01,86.449 L98.393,93.307 L99.839,100.167 C102.37,99.634 124.424,95.389 128.586,80.219 C130.955,71.591 127.287,61.621 117.161,52.309" id="Fill-18" fill="#DD4149"></path>
        <path d="M137.139,22.244 C137.138,22.245 137.138,22.246 137.138,22.246 C130.006,19.789 128.032,28.602 128.032,28.602 C128.031,28.602 128.03,28.602 128.03,28.601 C132.232,31.757 131.251,39.295 133.922,37.2 C138.913,32.902 138.605,26.976 137.139,22.244" id="Fill-19" fill="#090C0C"></path>
        <path d="M87.847,132.186 L83.158,132.186 C76.164,116.839 83.64,99.654 83.64,99.654 C83.64,99.654 89.499,80.9 78.783,99.654 C75.527,105.477 74.176,111.108 73.918,116.221 C73.899,116.221 73.882,116.215 73.864,116.215 C71.908,116.215 70.322,117.801 70.322,119.757 C70.322,121.713 71.908,123.298 73.864,123.298 C73.987,123.298 74.103,123.274 74.223,123.262 C75.576,133.07 80.29,139.669 80.29,139.669 L80.927,139.669 L93.792,139.669 L93.792,138.13 C93.792,134.854 91.125,132.188 87.847,132.186" id="Fill-20" fill="#DD4149"></path>
        <path d="M128.032,28.602 C128.009,28.586 127.985,28.571 127.962,28.555 C131.368,31.045 131.428,36.385 132.666,37.394 C134.805,32.474 133.049,26.805 131.293,23.042 C128.843,24.998 128.032,28.602 128.032,28.602" id="Fill-21" fill="#121513"></path>
        <path d="M129.52,13.508 C129.52,16.432 127.149,18.802 124.227,18.802 C121.302,18.802 118.933,16.432 118.933,13.508 C118.933,10.584 121.302,8.214 124.227,8.214 C127.149,8.214 129.52,10.584 129.52,13.508" id="Fill-22" fill="#F8EAD8"></path>
        <path d="M127.467,13.508 C127.467,15.298 126.016,16.749 124.227,16.749 C122.436,16.749 120.984,15.298 120.984,13.508 C120.984,11.718 122.436,10.267 124.227,10.267 C126.016,10.267 127.467,11.718 127.467,13.508" id="Fill-23" fill="#75C2DC"></path>
        <path d="M126.041,13.508 C126.041,14.511 125.228,15.324 124.227,15.324 C123.224,15.324 122.41,14.511 122.41,13.508 C122.41,12.505 123.224,11.693 124.227,11.693 C125.228,11.693 126.041,12.505 126.041,13.508" id="Fill-24" fill="#090C0C"></path>
        <path d="M124.407,12.686 C124.407,13.366 123.856,13.917 123.177,13.917 C122.496,13.917 121.944,13.366 121.944,12.686 C121.944,12.006 122.496,11.455 123.177,11.455 C123.856,11.455 124.407,12.006 124.407,12.686" id="Fill-25" fill="#FFFFFF"></path>
        <path d="M57.444,69.204 L39.372,97.125 C36.917,101.143 31.65,102.413 27.633,99.957 L25.749,98.805 L48.275,63.599 L57.444,69.204" id="Fill-26" fill="#DD4149"></path>
        <path d="M47.431,73.188 L29.358,101.11 C26.903,105.126 21.637,106.397 17.62,103.941 L15.736,102.789 L38.262,67.582 L47.431,73.188" id="Fill-27" fill="#DD4149"></path>
        <path d="M74.633,105.549 C108.79,105.549 122.494,89.894 122.494,89.894 C122.494,66.766 104.542,48.017 75.168,48.017 C40.628,48.017 0.595,102.6 0.595,102.6 L2.156,104.161 C5.485,107.491 10.902,107.49 14.231,104.161 L27.859,90.534 C27.859,90.534 40.477,105.549 74.633,105.549" id="Fill-28" fill="#DD4149"></path>
        <path d="M95.572,79.966 C93.184,78.963 90.805,77.933 88.557,76.659 C86.952,75.75 85.457,74.732 84.095,73.593 L52.327,87.683 L53.377,90.054 C55.62,95.106 61.554,97.393 66.608,95.152 L96.716,81.798 C96.323,81.196 95.943,80.585 95.572,79.966" id="Fill-29" fill="#121513"></path>
        <path d="M77.271,63.83 C76.428,61.364 76.03,58.78 75.74,56.195 L40.756,71.712 L41.805,74.081 C44.048,79.135 49.982,81.422 55.035,79.182 L79.449,68.352 C78.57,66.971 77.832,65.471 77.271,63.83" id="Fill-30" fill="#121513"></path>
        <path d="M78.081,65.849 L37.168,83.996 L38.218,86.366 C40.461,91.419 46.395,93.706 51.448,91.465 L86.981,75.704 C83.118,73.221 79.999,70.023 78.081,65.849" id="Fill-31" fill="#121513"></path>
        <path d="M100.507,72.06 C100.507,82.298 92.208,90.596 81.972,90.596 C71.734,90.596 63.435,82.298 63.435,72.06 C63.435,61.824 71.734,53.525 81.972,53.525 C92.208,53.525 100.507,61.824 100.507,72.06" id="Fill-32" fill="#DD4149"></path>
    </g>
</svg>