<?xml version="1.0" encoding="UTF-8" standalone="no"?>
<svg width="191px" height="131px" viewBox="0 0 191 131" version="1.1" xmlns="http://www.w3.org/2000/svg" xmlns:xlink="http://www.w3.org/1999/xlink">
    <!-- Generator: Sketch 3.7.1 (28215) - http://www.bohemiancoding.com/sketch -->
    <title>Slice 1</title>
    <desc>Created with Sketch.</desc>
    <defs></defs>
    <g id="Page-1" stroke="none" stroke-width="1" fill="none" fill-rule="evenodd">
        <path d="M174.599,65.143 C174.599,100.959 145.566,129.994 109.749,129.994 C73.933,129.994 44.899,100.959 44.899,65.143 C44.899,29.328 73.933,0.293 109.749,0.293 C145.566,0.293 174.599,29.328 174.599,65.143" id="Fill-34" fill="#E3654A"></path>
        <path d="M172.678,80.857 L137.849,45.353 L77.468,99.824 L107.597,129.955 C108.312,129.977 109.029,129.994 109.749,129.994 C140.146,129.994 165.653,109.08 172.678,80.857" id="Fill-35" fill="#DB5B3E"></path>
        <path d="M101.685,84.621 C101.685,84.621 94.27,94.568 105.533,97.357 C93.373,99.055 87.892,95.014 87.365,84.098 C93.918,74.816 101.685,84.621 101.685,84.621" id="Fill-36" fill="#3A3234"></path>
        <path d="M158.859,20.029 L158.842,20.029 C144.436,-2.45 119.605,5.35 114.072,18.576 C112.875,21.437 111.067,24.846 108.925,28.543 L44.899,20.029 L0.079,14.067 L0.397,16.508 C1.081,21.713 5.872,25.389 11.075,24.705 L13.723,24.439 L13.969,26.328 C14.653,31.531 19.445,35.207 24.647,34.523 L27.296,34.26 L27.543,36.146 C28.227,41.352 33.017,45.025 38.22,44.342 L40.868,44.078 L41.114,45.967 C41.799,51.17 46.59,54.846 51.792,54.162 L54.441,53.898 L54.687,55.783 C55.371,60.988 60.162,64.668 65.364,63.982 L68.01,63.693 L68.26,65.603 C68.943,70.81 73.735,74.484 78.938,73.801 L80.593,73.666 C63.262,100.935 45.913,128.037 45.913,128.037 L48.012,129.322 C52.493,132.06 58.365,130.644 61.104,126.166 L63.034,123.133 C67.131,124.469 71.766,122.889 74.11,119.057 L92.483,90.182 C131.51,90.783 151.631,68.473 150.022,54.269 C149.133,46.408 151.893,34.254 157.905,29.584 C158.458,29.234 158.861,28.961 159.067,28.818 C171.55,22.006 190.638,30.523 190.765,29.664 C190.77,29.668 190.776,29.672 190.782,29.674 C191.615,29.199 183.838,22.273 158.859,20.029" id="Fill-37" fill="#3A3234"></path>
        <path d="M149.784,24.697 C149.784,24.697 141.236,34.352 130.638,23.555 C120.195,12.917 97.14,47.6 96.47,48.615 C96.466,48.621 96.461,48.629 96.457,48.635 C96.768,48.211 120.311,20.121 130.838,30.844 C140.843,41.035 157.259,30.076 159.067,28.818 C171.552,22.004 190.644,30.525 190.765,29.664 C183.431,25.256 170.767,22.262 149.784,24.697" id="Fill-38" fill="#524347"></path>
        <path d="M157.905,29.584 C153.597,32.301 139.704,39.875 130.838,30.844 C120.321,20.131 96.811,48.16 96.459,48.633 C95.315,50.443 94.141,52.301 92.945,54.191 C88.633,53.775 85.007,50.439 84.419,45.967 L84.173,44.078 L81.524,44.342 C76.322,45.025 71.531,41.352 70.847,36.146 L70.601,34.26 L67.952,34.523 C62.749,35.207 57.958,31.531 57.273,26.328 L57.028,24.439 L54.379,24.705 C50.456,25.219 46.77,23.256 44.899,20.029 L0.079,14.067 L0.397,16.508 C1.081,21.713 5.872,25.389 11.075,24.705 L13.723,24.439 L13.969,26.328 C14.653,31.531 19.445,35.207 24.647,34.523 L27.296,34.26 L27.543,36.146 C28.227,41.352 33.017,45.025 38.22,44.342 L40.868,44.078 L41.114,45.967 C41.799,51.17 46.59,54.846 51.792,54.162 L54.441,53.898 L54.687,55.783 C55.371,60.988 60.162,64.668 65.364,63.982 L68.01,63.693 L68.26,65.603 C68.943,70.81 73.735,74.484 78.938,73.801 L80.593,73.666 C63.262,100.935 45.913,128.037 45.913,128.037 L48.012,129.322 C52.493,132.06 58.365,130.644 61.104,126.166 L63.034,123.133 C67.131,124.469 71.766,122.889 74.11,119.057 L92.483,90.182 C131.51,90.783 151.631,68.473 150.022,54.269 C149.133,46.408 151.893,34.254 157.905,29.584" id="Fill-39" fill="#716567"></path>
        <path d="M143.802,17.685 C143.802,20.217 141.75,22.273 139.218,22.273 C136.685,22.273 134.632,20.217 134.632,17.685 C134.632,15.154 136.685,13.102 139.218,13.102 C141.75,13.102 143.802,15.154 143.802,17.685" id="Fill-40" fill="#75C2DC"></path>
        <path d="M142.241,17.674 C142.241,19.346 140.888,20.701 139.218,20.701 C137.547,20.701 136.193,19.346 136.193,17.674 C136.193,16.005 137.547,14.652 139.218,14.652 C140.888,14.652 142.241,16.005 142.241,17.674" id="Fill-41" fill="#090C0C"></path>
        <path d="M139.516,15.914 C139.516,16.83 138.77,17.574 137.856,17.574 C136.938,17.574 136.193,16.83 136.193,15.914 C136.193,14.997 136.938,14.254 137.856,14.254 C138.77,14.254 139.516,14.997 139.516,15.914" id="Fill-42" fill="#FFFFFF"></path>
    </g>
</svg>