<?xml version="1.0" encoding="UTF-8" standalone="no"?>
<svg width="196px" height="131px" viewBox="0 0 196 131" version="1.1" xmlns="http://www.w3.org/2000/svg" xmlns:xlink="http://www.w3.org/1999/xlink">
    <!-- Generator: Sketch 3.7.1 (28215) - http://www.bohemiancoding.com/sketch -->
    <title>Slice 1</title>
    <desc>Created with Sketch.</desc>
    <defs></defs>
    <g id="Page-1" stroke="none" stroke-width="1" fill="none" fill-rule="evenodd">
        <path d="M162.692,65.847 C162.692,101.663 133.658,130.697 97.842,130.697 C62.026,130.697 32.992,101.663 32.992,65.847 C32.992,30.031 62.026,0.997 97.842,0.997 C133.658,0.997 162.692,30.031 162.692,65.847" id="Fill-2" fill="#98D0C3"></path>
        <path d="M160.77,81.561 L125.942,46.057 L58.243,93.211 L95.69,130.658 C96.405,130.681 97.122,130.697 97.842,130.697 C128.238,130.697 153.745,109.784 160.77,81.561" id="Fill-3" fill="#7ABEAC"></path>
        <path d="M140.189,60.98 C140.189,60.98 147.611,63.679 161.129,58.643 C174.647,53.606 183.923,52.016 195.056,58.643 C196.381,48.835 186.558,16.105 123.88,18.687 C99.901,54.932 140.189,60.98 140.189,60.98" id="Fill-4" fill="#F5C981"></path>
        <path d="M195.056,58.643 C195.056,58.643 179.261,30.682 133.175,37.461 C129.496,44.036 127.812,50.433 127.549,56.532 C133.748,60.011 140.189,60.98 140.189,60.98 C140.189,60.98 147.611,63.679 161.129,58.643 C174.647,53.606 183.923,52.016 195.056,58.643" id="Fill-5" fill="#F2B862"></path>
        <path d="M123.88,18.687 C122.699,20.474 121.679,22.184 120.796,23.827 C121.503,24.297 122.224,24.77 122.961,25.245 C181.538,15.704 195.056,58.643 195.056,58.643 C196.381,48.835 186.558,16.105 123.88,18.687" id="Fill-6" fill="#FADDAA"></path>
        <path d="M133.177,37.467 C132.9,29.862 130.017,18.67 116.069,15.438 C94.335,10.402 91.099,35.028 82.227,43.9 L30.669,87.128 C32.231,88.033 33.78,88.861 35.314,89.626 L0.517,111.076 C4.132,116.89 11.774,118.671 17.587,115.058 L20.608,113.166 C25.04,116.07 31.018,115.896 35.31,112.339 L58.243,93.211 C93.081,99.489 116.697,73.458 116.697,73.458 C116.697,73.458 132.238,59.608 140.189,60.98 C141.895,54.688 142.012,45.713 133.177,37.467" id="Fill-7" fill="#090C0C"></path>
        <path d="M114.717,51.655 C119.081,51.202 123.539,41.022 125.131,36.69 C127.002,31.602 126.811,20.244 111.358,20.45 C95.905,20.657 94.561,35.265 94.561,35.265 C94.561,35.265 108.398,52.31 114.717,51.655" id="Fill-8" fill="#DD4149"></path>
        <path d="M115.687,70.333 C115.687,70.333 145.825,42.848 125.131,36.69 C119.3,34.955 101.952,44.885 94.561,35.265 C91.201,64.481 115.687,70.333 115.687,70.333" id="Fill-9" fill="#F8EAD8"></path>
        <path d="M47.466,84.524 L103.546,74.696 C103.546,74.696 81.102,97.03 47.466,84.524" id="Fill-10" fill="#F8EAD8"></path>
        <path d="M114.51,33.96 C111.737,33.96 109.489,31.712 109.489,28.938 C109.489,26.165 111.737,23.917 114.51,23.917 C117.283,23.917 119.532,26.165 119.532,28.938 C119.532,31.712 117.283,33.96 114.51,33.96 Z" id="Fill-11" fill="#75C2DC"></path>
        <path d="M117.323,28.938 C117.323,30.492 116.064,31.751 114.51,31.751 C112.957,31.751 111.698,30.492 111.698,28.938 C111.698,27.385 112.957,26.126 114.51,26.126 C116.064,26.126 117.323,27.385 117.323,28.938" id="Fill-12" fill="#090C0C"></path>
        <path d="M114.792,27.665 C114.792,28.719 113.937,29.573 112.883,29.573 C111.83,29.573 110.976,28.719 110.976,27.665 C110.976,26.611 111.83,25.757 112.883,25.757 C113.937,25.757 114.792,26.611 114.792,27.665" id="Fill-13" fill="#FFFFFF"></path>
        <path d="M100.292,85.823 C100.292,85.823 94.335,90.581 99.503,96.413 C91.817,95.352 85.456,90.979 94.467,85.678 C103.479,80.377 100.292,85.823 100.292,85.823" id="Fill-14" fill="#090C0C"></path>
    </g>
</svg>